<?xml version="1.0" encoding="utf-8"?>
<!-- Generator: Adobe Illustrator 16.0.0, SVG Export Plug-In . SVG Version: 6.00 Build 0)  -->
<!DOCTYPE svg PUBLIC "-//W3C//DTD SVG 1.1//EN" "http://www.w3.org/Graphics/SVG/1.1/DTD/svg11.dtd">
<svg version="1.1" id="Layer_1" xmlns="http://www.w3.org/2000/svg" xmlns:xlink="http://www.w3.org/1999/xlink" x="0px" y="0px"
	 width="890.425px" height="337.299px" viewBox="0 0 890.425 337.299" enable-background="new 0 0 890.425 337.299"
	 xml:space="preserve">
<g>
	<g>
		<linearGradient id="SVGID_1_" gradientUnits="userSpaceOnUse" x1="147.8994" y1="148.6514" x2="716.6757" y2="146.1229">
			<stop  offset="0" style="stop-color:#ED3D0C"/>
			<stop  offset="1" style="stop-color:#B61EA7"/>
		</linearGradient>
		<path fill="url(#SVGID_1_)" d="M792.519,153.266l-14.892-14.893C783.072,142.829,788.063,147.82,792.519,153.266z"/>
	</g>
	<g>
		<g>
			<linearGradient id="SVGID_2_" gradientUnits="userSpaceOnUse" x1="7.207" y1="268.6504" x2="246.0769" y2="152.3748">
				<stop  offset="0" style="stop-color:#63A6D9"/>
				<stop  offset="1" style="stop-color:#0C55A3"/>
			</linearGradient>
			<path fill="url(#SVGID_2_)" d="M258.089,149.857l-8.573-8.572c-18.616-16.598-43.158-26.689-70.062-26.689
				c-6.22,0-12.313,0.543-18.237,1.577c-18.164,3.171-34.728,10.995-48.42,22.201l-14.892,14.893L0,251.171
				c27.267,11.368,56.764,18.447,87.654,20.412c5.837,0.372,11.719,0.582,17.651,0.582c26.362,0,51.851-3.735,75.975-10.687
				c38.305-11.04,73.161-30.213,102.577-55.532c5.424-4.669,10.662-9.546,15.704-14.62L258.089,149.857z"/>
		</g>
		<g>
			<linearGradient id="SVGID_3_" gradientUnits="userSpaceOnUse" x1="-22.3301" y1="207.9727" x2="216.5418" y2="91.6961">
				<stop  offset="0" style="stop-color:#63A6D9"/>
				<stop  offset="1" style="stop-color:#0C55A3"/>
			</linearGradient>
			<path fill="url(#SVGID_3_)" d="M97.906,153.266l14.892-14.893C107.352,142.829,102.362,147.82,97.906,153.266z"/>
		</g>
	</g>
	<linearGradient id="SVGID_4_" gradientUnits="userSpaceOnUse" x1="677.293" y1="166.0117" x2="818.846" y2="245.6354">
		<stop  offset="0" style="stop-color:#63A6D9"/>
		<stop  offset="1" style="stop-color:#0C55A3"/>
	</linearGradient>
	<path fill="url(#SVGID_4_)" d="M632.335,149.857l8.573-8.572c18.615-16.598,43.158-26.689,70.062-26.689
		c6.22,0,12.313,0.543,18.236,1.577c18.164,3.171,34.728,10.995,48.421,22.201l14.892,14.893l97.906,97.905
		c-27.267,11.368-56.764,18.447-87.654,20.412c-5.838,0.372-11.72,0.582-17.65,0.582c-26.362,0-51.852-3.735-75.976-10.687
		c-38.305-11.04-73.161-30.213-102.577-55.532c-5.424-4.669-10.662-9.546-15.704-14.62L632.335,149.857z"/>
	<g>
		<linearGradient id="SVGID_5_" gradientUnits="userSpaceOnUse" x1="697.8496" y1="165.7705" x2="145.541" y2="170.8266">
			<stop  offset="0" style="stop-color:#63A6D9"/>
			<stop  offset="1" style="stop-color:#0C55A3"/>
		</linearGradient>
		<path fill="url(#SVGID_5_)" d="M710.725,71.471L697.604,58.35c-5.856-6.932-12.291-13.367-19.243-19.242
			C649.482,14.696,611.618,0,568.567,0c-20.021,0-39.223,3.499-57.037,9.906c-19.832,7.132-37.942,17.875-53.532,31.44
			c-4.478,3.896-8.742,8.028-12.786,12.371c-4.043-4.343-8.309-8.476-12.786-12.371c-15.59-13.565-33.7-24.308-53.533-31.44
			C361.08,3.499,341.878,0,321.858,0c-43.051,0-80.916,14.696-109.794,39.107c-6.952,5.875-13.386,12.311-19.243,19.242
			L179.7,71.471l-66.902,66.902c13.693-11.206,30.256-19.03,48.42-22.201c5.924-1.034,12.017-1.577,18.237-1.577
			c26.903,0,51.446,10.091,70.062,26.689l8.573,8.572l41.472,41.469l4.108,4.108l-0.327,0.325L444.88,337.299l0.333-0.332
			l0.333,0.332L587.082,195.76l-0.326-0.325l4.107-4.108l41.472-41.469l8.573-8.572c18.615-16.598,43.158-26.689,70.062-26.689
			c6.22,0,12.313,0.543,18.236,1.577c18.164,3.171,34.728,10.995,48.421,22.201L710.725,71.471z"/>
	</g>
	<g opacity="0.1">
		<path fill="#230B00" d="M234.244,155.609c-18.616-16.597-43.158-26.689-70.061-26.689c-6.22,0-12.313,0.543-18.237,1.577
			c-16.527,2.887-31.723,9.634-44.643,19.265l11.39-11.389c13.692-11.206,30.256-19.03,48.42-22.201
			c5.924-1.034,12.017-1.577,18.237-1.577c26.903,0,51.446,10.091,70.062,26.689l8.573,8.572l41.472,41.469
			c-4.904,4.935-9.996,9.68-15.261,14.231l-41.378-41.375L234.244,155.609z"/>
	</g>
	<g opacity="0.1">
		<path fill="#FFFFFF" d="M656.075,155.609c18.615-16.597,43.158-26.689,70.062-26.689c6.22,0,12.313,0.543,18.237,1.577
			c16.527,2.887,31.722,9.634,44.642,19.265l-11.389-11.389c-13.693-11.206-30.257-19.03-48.421-22.201
			c-5.924-1.034-12.017-1.577-18.236-1.577c-26.903,0-51.446,10.091-70.062,26.689l-8.573,8.572l-41.472,41.469
			c4.903,4.935,9.996,9.68,15.261,14.231l41.378-41.375L656.075,155.609z"/>
	</g>
	<g>
		<g>
			<linearGradient id="SVGID_6_" gradientUnits="userSpaceOnUse" x1="461.5449" y1="154.8936" x2="464.4473" y2="154.8936">
				<stop  offset="0" style="stop-color:#3889CC"/>
				<stop  offset="1" style="stop-color:#1661B9"/>
			</linearGradient>
			<path fill="url(#SVGID_6_)" d="M462.996,156.394c1.935,0,1.935-3,0-3S461.062,156.394,462.996,156.394L462.996,156.394z"/>
		</g>
	</g>
</g>
</svg>
